<svg width="15" height="20" viewBox="0 0 15 20" fill="none" xmlns="http://www.w3.org/2000/svg">
<g opacity="0.7">
<path d="M10.4239 7.24497C10.4239 6.26642 11.7467 6.00705 12.0977 6.92264C12.9466 9.13741 13.5651 11.1186 13.5651 12.1898C13.5651 15.6036 10.7523 18.3711 7.28257 18.3711C3.81281 18.3711 1 15.6036 1 12.1898C1 11.039 1.71398 8.83775 2.66056 6.42494C3.88675 3.29947 4.49984 1.73673 5.25669 1.65255C5.49882 1.62563 5.76307 1.67405 5.97906 1.78497C6.65431 2.13164 6.65431 3.83608 6.65431 7.24497C6.65431 8.26908 7.49819 9.09934 8.53908 9.09934C9.57998 9.09934 10.4239 8.26908 10.4239 7.24497Z" stroke="#1C274C" stroke-width="1.5"/>
<path d="M6.02614 18.3707L5.69592 17.5585C5.12346 16.1504 5.36483 14.5481 6.3277 13.3639C6.81724 12.7618 7.74806 12.7618 8.2376 13.3639C9.20047 14.5481 9.44184 16.1504 8.86938 17.5585L8.53916 18.3707" stroke="#1C274C" stroke-width="1.5"/>
</g>
</svg>
