<svg width="20" height="21" viewBox="0 0 20 21" fill="none" xmlns="http://www.w3.org/2000/svg">
<path opacity="0.5" d="M10 18.683C14.6024 18.683 18.3334 15.0122 18.3334 10.4841C18.3334 5.95594 14.6024 2.28516 10 2.28516C5.39765 2.28516 1.66669 5.95594 1.66669 10.4841C1.66669 15.0122 5.39765 18.683 10 18.683Z" fill="#1C274C"/>
<path fill-rule="evenodd" clip-rule="evenodd" d="M10 6.5896C10.3452 6.5896 10.625 6.86491 10.625 7.20452V10.2293L12.5252 12.099C12.7693 12.3392 12.7693 12.7285 12.5252 12.9686C12.2812 13.2088 11.8855 13.2088 11.6414 12.9686L9.55808 10.9189C9.44083 10.8036 9.375 10.6472 9.375 10.4841V7.20452C9.375 6.86491 9.65483 6.5896 10 6.5896Z" fill="#1C274C"/>
</svg>
