<svg width="35" height="35" viewBox="0 0 35 35" fill="none" xmlns="http://www.w3.org/2000/svg">
<path d="M17.5 0C7.83508 0 0 7.8348 0 17.5C0 27.1652 7.83508 35 17.5 35C27.1649 35 35 27.1652 35 17.5C35 7.8348 27.165 0 17.5 0ZM14.1967 25.8941C14.1967 24.6902 15.173 23.7139 16.3769 23.7139C17.58 23.7139 18.5562 24.6902 18.5562 25.8941C18.5562 27.0969 17.58 28.0737 16.3769 28.0737C15.173 28.0737 14.1967 27.0969 14.1967 25.8941ZM23.49 14.9606C23.2442 15.63 22.8883 16.2108 22.4854 16.6939C21.6756 17.6611 20.7158 18.2469 19.9259 18.6791C19.3983 18.9645 18.9325 19.1842 18.6429 19.3469C18.4443 19.4566 18.3367 19.5486 18.2836 19.6085C18.2311 19.6718 18.2133 19.6978 18.1813 19.8017C18.1627 19.8706 18.1432 19.9802 18.1432 20.1497C18.1432 20.6192 18.1432 21.005 18.1432 21.005C18.1432 21.4474 17.7844 21.8067 17.3418 21.8067H15.4105C14.9679 21.8067 14.6085 21.4474 14.6085 21.005C14.6085 21.005 14.6085 20.6191 14.6085 20.1497C14.6085 19.7096 14.6599 19.2785 14.7729 18.8661C14.8848 18.4554 15.0611 18.0651 15.2862 17.7249C15.7373 17.0356 16.3486 16.5763 16.9257 16.2565C17.4316 15.978 17.9322 15.7469 18.3965 15.4854C18.8606 15.2261 19.2745 14.9447 19.5793 14.6396C19.7835 14.4363 19.9423 14.2261 20.0637 13.9889C20.2234 13.6725 20.3341 13.3007 20.3366 12.7318C20.3375 12.5634 20.2889 12.342 20.1567 12.0889C20.0251 11.8369 19.8104 11.5629 19.5234 11.3171C18.9458 10.8216 18.0986 10.4595 17.1272 10.4612C16.0139 10.4651 15.2688 10.7261 14.6945 11.0504C14.123 11.3769 13.9405 11.7063 13.9405 11.7063C13.6488 11.9605 13.2157 11.9695 12.9134 11.7278L11.4293 10.5386C11.2435 10.39 11.1339 10.1668 11.1288 9.92838C11.1245 9.69056 11.2262 9.46285 11.4064 9.30638C11.4064 9.30638 11.8689 8.59339 12.9412 7.98157C14.009 7.36689 15.4241 6.92282 17.1272 6.92686C18.5091 6.92686 19.7822 7.30707 20.837 7.92907C21.892 8.55442 22.744 9.41548 23.2877 10.4499C23.6487 11.1385 23.8705 11.9148 23.871 12.7317C23.8718 13.538 23.7377 14.2911 23.49 14.9606Z" fill="#F4F1E8"/>
</svg>
