<svg width="28" height="24" viewBox="0 0 28 24" fill="none" xmlns="http://www.w3.org/2000/svg">
<path fill-rule="evenodd" clip-rule="evenodd" d="M3.25855 13.4787L12.8287 22.4837C13.1583 22.7938 13.3231 22.9489 13.5175 22.9871C13.605 23.0043 13.695 23.0043 13.7826 22.9871C13.9769 22.9489 14.1417 22.7938 14.4714 22.4837L24.0414 13.4787C26.7341 10.9452 27.061 6.77588 24.7964 3.85222L24.3707 3.30248C21.6615 -0.195047 16.2235 0.391509 14.3199 4.38659C14.051 4.95093 13.2491 4.95093 12.9801 4.38659C11.0766 0.391509 5.63855 -0.195047 2.9294 3.30249L2.50359 3.85222C0.238955 6.77588 0.565936 10.9452 3.25855 13.4787Z" stroke="#333333" stroke-width="3"/>
</svg>
