<svg width="25" height="25" viewBox="0 0 25 25" fill="none" xmlns="http://www.w3.org/2000/svg">
<path fill-rule="evenodd" clip-rule="evenodd" d="M20.7032 22.5H4.29772C3.41473 22.5 2.76269 21.6287 3.09572 20.8275C4.64095 17.1225 8.27116 15 12.4998 15C16.7297 15 20.3599 17.1225 21.9052 20.8275C22.2382 21.6287 21.5862 22.5 20.7032 22.5ZM7.39583 7.49999C7.39583 4.74248 9.68624 2.49998 12.4998 2.49998C15.3147 2.49998 17.6038 4.74248 17.6038 7.49999C17.6038 10.2575 15.3147 12.5 12.4998 12.5C9.68624 12.5 7.39583 10.2575 7.39583 7.49999ZM24.9446 22.045C24.0169 17.8462 21.1153 14.7475 17.2963 13.3412C19.32 11.745 20.5003 9.16367 20.0665 6.33742C19.5637 3.05867 16.7795 0.434971 13.4185 0.0524711C8.77902 -0.476279 4.84384 3.06123 4.84384 7.49999C4.84384 9.86249 5.96161 11.9675 7.70462 13.3412C3.88429 14.7475 0.983954 17.8462 0.05503 22.045C-0.281833 23.5712 0.973748 25 2.56747 25H22.4322C24.0271 25 25.2827 23.5712 24.9446 22.045Z" fill="#333333"/>
</svg>
